<svg xmlns="http://www.w3.org/2000/svg" viewBox="0 0 83.79 89.83"><defs><style>.cls-1{fill:#181832;}.cls-2{fill:#f15c2c;}.cls-3{fill:#fff;}</style></defs><title>lefetech-isologo-blanco</title><g id="Layer_2" data-name="Layer 2"><g id="Layer_2-2" data-name="Layer 2"><path class="cls-1" d="M14.14,49.79,55.45,9.93,22.92,10A23,23,0,0,0,0,32.92v34A23,23,0,0,0,22.92,89.83h.24l4.08-10L39.59,50Z"/><path class="cls-2" d="M62.14,0H57.89L55.45,9.93,44,39.8l25,.25L27.24,79.83h34.9c11.91,0,21.65-10.31,21.65-22.92v-34C83.79,10.31,74.05,0,62.14,0Z"/><polygon class="cls-3" points="69.06 40.05 44.08 39.73 55.45 9.93 14.14 49.79 39.59 50.04 27.24 79.83 69.06 40.05"/></g></g></svg>