<svg xmlns="http://www.w3.org/2000/svg" viewBox="0 0 234.42 89.83"><defs><style>.cls-1{fill:#fff;}.cls-2{fill:#181832;}.cls-3{fill:#f15c2c;}</style></defs><title>Asset 3</title><g id="Layer_2" data-name="Layer 2"><g id="Layer_2-2" data-name="Layer 2"><path class="cls-1" d="M104,51.71V22.59h5.94V47.68h6.83v4Z"/><path class="cls-1" d="M119.35,51.71V22.59H132v4.1h-6.76v7.73h5.22v4.13h-5.22v9.13h6.84v4Z"/><path class="cls-1" d="M135.1,51.71V22.59h12.29v4H141v7.87h5.39v4.14H141V51.71Z"/><path class="cls-1" d="M150.23,51.71V22.59h12.69v4.1h-6.76v7.73h5.22v4.13h-5.22v9.13H163v4Z"/><path class="cls-1" d="M168.71,51.71V27h-4.49V22.59H179.1V27h-4.42v24.7Z"/><path class="cls-1" d="M181.72,51.71V22.59h12.69v4.1h-6.76v7.73h5.22v4.13h-5.22v9.13h6.84v4Z"/><path class="cls-1" d="M205.56,52.11a9.32,9.32,0,0,1-5.13-1.23,6.48,6.48,0,0,1-2.64-3.39,15.51,15.51,0,0,1-.75-5.05V32a16,16,0,0,1,.75-5.19,6.34,6.34,0,0,1,2.64-3.36,11.8,11.8,0,0,1,10-.14A5.67,5.67,0,0,1,213,26.22a12.26,12.26,0,0,1,.74,4.42v2.45H208V30.36a16,16,0,0,0-.11-1.89,2.55,2.55,0,0,0-.6-1.44,2.12,2.12,0,0,0-1.67-.56,2.27,2.27,0,0,0-1.72.58,2.76,2.76,0,0,0-.69,1.49,14,14,0,0,0-.14,2V43.8a10.32,10.32,0,0,0,.2,2.14,2.47,2.47,0,0,0,.75,1.4,2.34,2.34,0,0,0,1.6.49,2.08,2.08,0,0,0,1.64-.56,2.78,2.78,0,0,0,.61-1.49,15.43,15.43,0,0,0,.13-2V41h5.75v2.41a13,13,0,0,1-.72,4.51A6.06,6.06,0,0,1,210.52,51,9.13,9.13,0,0,1,205.56,52.11Z"/><path class="cls-1" d="M217.42,51.71V22.59h5.93v12h5.14v-12h5.93V51.71h-5.93V38.81h-5.14v12.9Z"/><path class="cls-2" d="M14.14,49.79,55.45,9.93,22.92,10A23,23,0,0,0,0,32.92v34A23,23,0,0,0,22.92,89.83h.24l4.08-10L39.59,50Z"/><path class="cls-3" d="M62.14,0H57.89L55.45,9.93,44,39.8l25,.25L27.24,79.83h34.9c11.91,0,21.65-10.31,21.65-22.92v-34C83.79,10.31,74.05,0,62.14,0Z"/><polygon class="cls-1" points="69.06 40.05 44.08 39.73 55.45 9.93 14.14 49.79 39.59 50.04 27.24 79.83 69.06 40.05"/></g></g></svg>